<svg width="200" height="42" xmlns="http://www.w3.org/2000/svg">
	<path fill="context-fill #20123a" d="m195.61 17.773c0-7.4962-5.8054-11.284-11.687-11.284-5.924 0-11.806 3.7502-11.806 11.284 0 7.4962 5.8393 11.284 11.683 11.284 5.924 0 11.81-3.7459 11.81-11.284zm-19.544 0c0-5.1994 3.907-7.7758 7.8563-7.7758 3.8688 0 7.7758 2.6188 7.7758 7.7758 0 5.119-3.907 7.7377-7.8182 7.7377-3.907 0-7.8139-2.5764-7.8139-7.7377zm-12.81-7.4157h4.4324c-1.5298-7.6572-8.1826-10.356-13.704-10.356-7.9368 0-14.145 6.0851-14.145 14.589 0 8.4623 6.0851 14.547 14.145 14.547 5.2418 0 11.124-3.8264 13.098-9.3098v0.04237c0.40256-0.96614 0.60596-2.5806 0.80513-4.996h-15.514v4.1485h10.64c-1.695 4.1909-5.4833 6.1274-9.0301 6.1274-5.6401 0-9.992-4.4748-9.992-10.56 0-6.0469 4.3519-10.437 9.992-10.437 3.6697 0 8.1022 1.5721 9.2717 6.2038zm-37.761 18.297v-21.802h-3.9493l0.0381 2.9027c-1.9322-2.6188-5.1952-3.2671-7.8986-3.2671-7.3733 0-11.644 5.2799-11.644 11.166 0 6.0046 4.1104 11.365 11.729 11.365 2.6993-0.04237 6.2038-0.92801 7.7758-3.3053v2.9408zm-3.9493-10.92c0 5.2375-4.2332 7.7758-7.8606 7.7758-4.835 0-7.6954-3.7459-7.6954-7.8563 0-4.3138 2.9027-7.6996 7.6954-7.6996 3.7078 0 7.8606 2.5806 7.8606 7.7801zm-28.572 8.0593v2.8603h3.7459v-22.005h-3.9493v12.051c0 3.8264-2.2543 6.7715-6.407 6.7715-4.7545 0-5.8012-2.8222-5.8012-6.8944v-11.928h-3.9493v11.928c0 6.2503 2.8603 10.399 9.4708 10.399 2.818 0 5.2757-0.80513 6.8902-3.1824zm-22.204-25.349h-3.9493v9.2293c-1.8942-2.5806-4.6358-3.1866-7.3351-3.1866-7.3775 0-11.568 4.9198-11.568 11.166 0 6.4876 3.9917 11.365 11.606 11.365 2.7416-0.04237 5.7248-0.92801 7.297-3.3053v2.9408h3.9493zm-3.9493 17.29c0 5.2375-3.6697 7.7758-7.3775 7.7758-4.7926 0-7.5767-3.3053-7.5767-7.7758 0-3.9112 2.784-7.7801 7.619-7.7801 3.6654 0 7.3351 2.5806 7.3351 7.7801zm-23.133 10.92v-21.802h-3.9493l0.03818 2.9027c-1.9322-2.6188-5.1952-3.2671-7.8986-3.2671-7.3733 0-11.644 5.2799-11.644 11.166 0 6.0046 4.1104 11.365 11.729 11.365 2.6993-0.04237 6.2038-0.92801 7.7758-3.3053v2.9408zm-3.9493-10.92c0 5.2375-4.2332 7.7758-7.8606 7.7758-4.835 0-7.6954-3.7459-7.6954-7.8563 0-4.3138 2.9027-7.6996 7.6954-7.6996 3.7078 0 7.8606 2.5806 7.8606 7.7801zm-24.824-1.2931v-16.2h-11.687v3.7078h7.6148v12.493c0 5.2799-2.1738 8.5852-9.4284 8.5852-0.44494 0-0.92801 0-1.4111-0.03814v3.8264c0.40256 0 0.8475 0.04237 1.2077 0.04237 9.9539 0 13.704-4.3561 13.704-12.416z"/>
</svg>
