<svg xmlns="http://www.w3.org/2000/svg" xmlns:xlink="http://www.w3.org/1999/xlink" width="63" zoomAndPan="magnify" viewBox="0 0 47.25 46.5" height="62" preserveAspectRatio="xMidYMid meet" version="1.0"><defs><clipPath id="2930add1bf"><path d="M 0 0.117188 L 46.511719 0.117188 L 46.511719 45.890625 L 0 45.890625 Z M 0 0.117188 " clip-rule="nonzero"/></clipPath><clipPath id="e7327cd586"><path d="M 46.140625 23.003906 C 46.140625 23.753906 46.105469 24.5 46.03125 25.246094 C 45.957031 25.992188 45.847656 26.734375 45.703125 27.46875 C 45.554688 28.203125 45.375 28.929688 45.15625 29.648438 C 44.941406 30.363281 44.6875 31.070312 44.402344 31.761719 C 44.113281 32.453125 43.792969 33.132812 43.441406 33.792969 C 43.085938 34.453125 42.703125 35.097656 42.285156 35.71875 C 41.867188 36.34375 41.421875 36.945312 40.949219 37.523438 C 40.472656 38.101562 39.96875 38.65625 39.4375 39.1875 C 38.910156 39.71875 38.355469 40.21875 37.773438 40.695312 C 37.195312 41.171875 36.59375 41.617188 35.972656 42.035156 C 35.347656 42.449219 34.707031 42.835938 34.042969 43.1875 C 33.382812 43.542969 32.707031 43.863281 32.015625 44.148438 C 31.320312 44.433594 30.617188 44.6875 29.898438 44.90625 C 29.183594 45.121094 28.457031 45.304688 27.722656 45.449219 C 26.984375 45.597656 26.246094 45.707031 25.5 45.78125 C 24.753906 45.855469 24.003906 45.890625 23.253906 45.890625 C 22.507812 45.890625 21.757812 45.855469 21.011719 45.78125 C 20.265625 45.707031 19.527344 45.597656 18.789062 45.449219 C 18.054688 45.304688 17.328125 45.121094 16.613281 44.90625 C 15.894531 44.6875 15.191406 44.433594 14.496094 44.148438 C 13.804688 43.863281 13.128906 43.542969 12.46875 43.1875 C 11.804688 42.835938 11.164062 42.449219 10.539062 42.035156 C 9.917969 41.617188 9.316406 41.171875 8.738281 40.695312 C 8.15625 40.21875 7.601562 39.71875 7.074219 39.1875 C 6.542969 38.65625 6.039062 38.101562 5.5625 37.523438 C 5.089844 36.945312 4.644531 36.34375 4.226562 35.71875 C 3.808594 35.097656 3.425781 34.453125 3.070312 33.792969 C 2.71875 33.132812 2.398438 32.453125 2.109375 31.761719 C 1.824219 31.070312 1.570312 30.363281 1.355469 29.648438 C 1.136719 28.929688 0.957031 28.203125 0.808594 27.46875 C 0.664062 26.734375 0.554688 25.992188 0.480469 25.246094 C 0.40625 24.5 0.367188 23.753906 0.367188 23.003906 C 0.367188 22.253906 0.40625 21.507812 0.480469 20.761719 C 0.554688 20.015625 0.664062 19.273438 0.808594 18.539062 C 0.957031 17.804688 1.136719 17.078125 1.355469 16.359375 C 1.570312 15.644531 1.824219 14.9375 2.109375 14.246094 C 2.398438 13.554688 2.71875 12.875 3.070312 12.214844 C 3.425781 11.554688 3.808594 10.910156 4.226562 10.289062 C 4.644531 9.664062 5.089844 9.0625 5.5625 8.484375 C 6.039062 7.90625 6.542969 7.351562 7.074219 6.820312 C 7.601562 6.289062 8.15625 5.789062 8.738281 5.3125 C 9.316406 4.835938 9.917969 4.390625 10.539062 3.972656 C 11.164062 3.558594 11.804688 3.171875 12.46875 2.820312 C 13.128906 2.464844 13.804688 2.144531 14.496094 1.859375 C 15.191406 1.574219 15.894531 1.320312 16.613281 1.101562 C 17.328125 0.886719 18.054688 0.703125 18.789062 0.558594 C 19.527344 0.410156 20.265625 0.300781 21.011719 0.226562 C 21.757812 0.152344 22.507812 0.117188 23.253906 0.117188 C 24.003906 0.117188 24.753906 0.152344 25.5 0.226562 C 26.246094 0.300781 26.984375 0.410156 27.722656 0.558594 C 28.457031 0.703125 29.183594 0.886719 29.898438 1.101562 C 30.617188 1.320312 31.320312 1.574219 32.015625 1.859375 C 32.707031 2.144531 33.382812 2.464844 34.042969 2.820312 C 34.707031 3.171875 35.347656 3.558594 35.972656 3.972656 C 36.59375 4.390625 37.195312 4.835938 37.773438 5.3125 C 38.355469 5.789062 38.910156 6.289062 39.4375 6.820312 C 39.96875 7.351562 40.472656 7.90625 40.949219 8.484375 C 41.421875 9.0625 41.867188 9.664062 42.285156 10.289062 C 42.703125 10.910156 43.085938 11.554688 43.441406 12.214844 C 43.792969 12.875 44.113281 13.554688 44.402344 14.246094 C 44.6875 14.9375 44.941406 15.644531 45.15625 16.359375 C 45.375 17.078125 45.554688 17.804688 45.703125 18.539062 C 45.847656 19.273438 45.957031 20.015625 46.03125 20.761719 C 46.105469 21.507812 46.140625 22.253906 46.140625 23.003906 Z M 46.140625 23.003906 " clip-rule="nonzero"/></clipPath><linearGradient x1="62.9915" gradientTransform="matrix(0.738281, 0, 0, 0.738281, 0, 0.117188)" y1="0.491503" x2="0.991501" gradientUnits="userSpaceOnUse" y2="62.491498" id="cb82fa1141"><stop stop-opacity="1" stop-color="rgb(7.099915%, 5.899048%, 20.399475%)" offset="0"/><stop stop-opacity="1" stop-color="rgb(7.099915%, 5.899048%, 20.399475%)" offset="0.25"/><stop stop-opacity="1" stop-color="rgb(7.148743%, 5.958557%, 20.307922%)" offset="0.3125"/><stop stop-opacity="1" stop-color="rgb(7.254028%, 6.085205%, 20.117188%)" offset="0.328125"/><stop stop-opacity="1" stop-color="rgb(7.365417%, 6.219482%, 19.914246%)" offset="0.34375"/><stop stop-opacity="1" stop-color="rgb(7.475281%, 6.35376%, 19.71283%)" offset="0.359375"/><stop stop-opacity="1" stop-color="rgb(7.58667%, 6.488037%, 19.509888%)" offset="0.375"/><stop stop-opacity="1" stop-color="rgb(7.698059%, 6.620789%, 19.306946%)" offset="0.390625"/><stop stop-opacity="1" stop-color="rgb(7.809448%, 6.755066%, 19.10553%)" offset="0.40625"/><stop stop-opacity="1" stop-color="rgb(7.920837%, 6.889343%, 18.902588%)" offset="0.421875"/><stop stop-opacity="1" stop-color="rgb(8.030701%, 7.023621%, 18.701172%)" offset="0.4375"/><stop stop-opacity="1" stop-color="rgb(8.14209%, 7.156372%, 18.49823%)" offset="0.453125"/><stop stop-opacity="1" stop-color="rgb(8.253479%, 7.290649%, 18.295288%)" offset="0.46875"/><stop stop-opacity="1" stop-color="rgb(8.364868%, 7.424927%, 18.093872%)" offset="0.484375"/><stop stop-opacity="1" stop-color="rgb(8.476257%, 7.559204%, 17.89093%)" offset="0.5"/><stop stop-opacity="1" stop-color="rgb(8.532715%, 7.626343%, 17.790222%)" offset="0.5"/><stop stop-opacity="1" stop-color="rgb(8.587646%, 7.693481%, 17.689514%)" offset="0.5"/><stop stop-opacity="1" stop-color="rgb(8.642578%, 7.76062%, 17.588806%)" offset="0.515625"/><stop stop-opacity="1" stop-color="rgb(8.69751%, 7.826233%, 17.486572%)" offset="0.53125"/><stop stop-opacity="1" stop-color="rgb(8.808899%, 7.96051%, 17.285156%)" offset="0.546875"/><stop stop-opacity="1" stop-color="rgb(8.920288%, 8.094788%, 17.082214%)" offset="0.5625"/><stop stop-opacity="1" stop-color="rgb(9.031677%, 8.229065%, 16.879272%)" offset="0.578125"/><stop stop-opacity="1" stop-color="rgb(9.143066%, 8.361816%, 16.677856%)" offset="0.59375"/><stop stop-opacity="1" stop-color="rgb(9.254456%, 8.496094%, 16.474915%)" offset="0.609375"/><stop stop-opacity="1" stop-color="rgb(9.364319%, 8.630371%, 16.273499%)" offset="0.625"/><stop stop-opacity="1" stop-color="rgb(9.475708%, 8.764648%, 16.070557%)" offset="0.640625"/><stop stop-opacity="1" stop-color="rgb(9.587097%, 8.8974%, 15.869141%)" offset="0.65625"/><stop stop-opacity="1" stop-color="rgb(9.698486%, 9.031677%, 15.666199%)" offset="0.671875"/><stop stop-opacity="1" stop-color="rgb(9.809875%, 9.165955%, 15.463257%)" offset="0.6875"/><stop stop-opacity="1" stop-color="rgb(9.919739%, 9.300232%, 15.261841%)" offset="0.703125"/><stop stop-opacity="1" stop-color="rgb(10.031128%, 9.432983%, 15.058899%)" offset="0.71875"/><stop stop-opacity="1" stop-color="rgb(10.142517%, 9.567261%, 14.857483%)" offset="0.734375"/><stop stop-opacity="1" stop-color="rgb(10.253906%, 9.701538%, 14.654541%)" offset="0.75"/><stop stop-opacity="1" stop-color="rgb(10.365295%, 9.835815%, 14.453125%)" offset="0.765625"/><stop stop-opacity="1" stop-color="rgb(10.476685%, 9.970093%, 14.250183%)" offset="0.78125"/><stop stop-opacity="1" stop-color="rgb(10.586548%, 10.102844%, 14.047241%)" offset="0.796875"/><stop stop-opacity="1" stop-color="rgb(10.697937%, 10.237122%, 13.845825%)" offset="0.8125"/><stop stop-opacity="1" stop-color="rgb(10.809326%, 10.371399%, 13.642883%)" offset="0.828125"/><stop stop-opacity="1" stop-color="rgb(10.920715%, 10.505676%, 13.441467%)" offset="0.84375"/><stop stop-opacity="1" stop-color="rgb(10.987854%, 10.585022%, 13.319397%)" offset="0.875"/><stop stop-opacity="1" stop-color="rgb(10.998535%, 10.598755%, 13.299561%)" offset="1"/></linearGradient></defs><g clip-path="url(#2930add1bf)"><g clip-path="url(#e7327cd586)"><path fill="url(#cb82fa1141)" d="M 0.367188 0.117188 L 0.367188 45.890625 L 46.140625 45.890625 L 46.140625 0.117188 Z M 0.367188 0.117188 " fill-rule="nonzero"/></g></g></svg>