<svg xmlns="http://www.w3.org/2000/svg" xmlns:xlink="http://www.w3.org/1999/xlink" width="63" zoomAndPan="magnify" viewBox="0 0 47.25 46.5" height="62" preserveAspectRatio="xMidYMid meet" version="1.0"><defs><clipPath id="f05f87fff2"><path d="M 0 0.117188 L 46.511719 0.117188 L 46.511719 45.890625 L 0 45.890625 Z M 0 0.117188 " clip-rule="nonzero"/></clipPath><clipPath id="4f304d2bba"><path d="M 0 0.117188 L 46.511719 0.117188 L 46.511719 45.890625 L 0 45.890625 Z M 0 0.117188 " clip-rule="nonzero"/></clipPath><clipPath id="b281362c35"><path d="M 46.140625 23.003906 C 46.140625 23.753906 46.105469 24.5 46.03125 25.246094 C 45.957031 25.992188 45.847656 26.734375 45.703125 27.46875 C 45.554688 28.203125 45.375 28.929688 45.15625 29.648438 C 44.941406 30.363281 44.6875 31.070312 44.402344 31.761719 C 44.113281 32.453125 43.792969 33.132812 43.441406 33.792969 C 43.085938 34.453125 42.703125 35.097656 42.285156 35.71875 C 41.867188 36.34375 41.421875 36.945312 40.949219 37.523438 C 40.472656 38.101562 39.96875 38.65625 39.4375 39.1875 C 38.910156 39.71875 38.355469 40.21875 37.773438 40.695312 C 37.195312 41.171875 36.59375 41.617188 35.972656 42.035156 C 35.347656 42.449219 34.707031 42.835938 34.042969 43.1875 C 33.382812 43.542969 32.707031 43.863281 32.015625 44.148438 C 31.320312 44.433594 30.617188 44.6875 29.898438 44.90625 C 29.183594 45.121094 28.457031 45.304688 27.722656 45.449219 C 26.984375 45.597656 26.246094 45.707031 25.5 45.78125 C 24.753906 45.855469 24.003906 45.890625 23.253906 45.890625 C 22.507812 45.890625 21.757812 45.855469 21.011719 45.78125 C 20.265625 45.707031 19.527344 45.597656 18.789062 45.449219 C 18.054688 45.304688 17.328125 45.121094 16.613281 44.90625 C 15.894531 44.6875 15.191406 44.433594 14.496094 44.148438 C 13.804688 43.863281 13.128906 43.542969 12.46875 43.1875 C 11.804688 42.835938 11.164062 42.449219 10.539062 42.035156 C 9.917969 41.617188 9.316406 41.171875 8.738281 40.695312 C 8.15625 40.21875 7.601562 39.71875 7.074219 39.1875 C 6.542969 38.65625 6.039062 38.101562 5.5625 37.523438 C 5.089844 36.945312 4.644531 36.34375 4.226562 35.71875 C 3.808594 35.097656 3.425781 34.453125 3.070312 33.792969 C 2.71875 33.132812 2.398438 32.453125 2.109375 31.761719 C 1.824219 31.070312 1.570312 30.363281 1.355469 29.648438 C 1.136719 28.929688 0.957031 28.203125 0.808594 27.46875 C 0.664062 26.734375 0.554688 25.992188 0.480469 25.246094 C 0.40625 24.5 0.367188 23.753906 0.367188 23.003906 C 0.367188 22.253906 0.40625 21.507812 0.480469 20.761719 C 0.554688 20.015625 0.664062 19.273438 0.808594 18.539062 C 0.957031 17.804688 1.136719 17.078125 1.355469 16.359375 C 1.570312 15.644531 1.824219 14.9375 2.109375 14.246094 C 2.398438 13.554688 2.71875 12.875 3.070312 12.214844 C 3.425781 11.554688 3.808594 10.910156 4.226562 10.289062 C 4.644531 9.664062 5.089844 9.0625 5.5625 8.484375 C 6.039062 7.90625 6.542969 7.351562 7.074219 6.820312 C 7.601562 6.289062 8.15625 5.789062 8.738281 5.3125 C 9.316406 4.835938 9.917969 4.390625 10.539062 3.972656 C 11.164062 3.558594 11.804688 3.171875 12.46875 2.820312 C 13.128906 2.464844 13.804688 2.144531 14.496094 1.859375 C 15.191406 1.574219 15.894531 1.320312 16.613281 1.101562 C 17.328125 0.886719 18.054688 0.703125 18.789062 0.558594 C 19.527344 0.410156 20.265625 0.300781 21.011719 0.226562 C 21.757812 0.152344 22.507812 0.117188 23.253906 0.117188 C 24.003906 0.117188 24.753906 0.152344 25.5 0.226562 C 26.246094 0.300781 26.984375 0.410156 27.722656 0.558594 C 28.457031 0.703125 29.183594 0.886719 29.898438 1.101562 C 30.617188 1.320312 31.320312 1.574219 32.015625 1.859375 C 32.707031 2.144531 33.382812 2.464844 34.042969 2.820312 C 34.707031 3.171875 35.347656 3.558594 35.972656 3.972656 C 36.59375 4.390625 37.195312 4.835938 37.773438 5.3125 C 38.355469 5.789062 38.910156 6.289062 39.4375 6.820312 C 39.96875 7.351562 40.472656 7.90625 40.949219 8.484375 C 41.421875 9.0625 41.867188 9.664062 42.285156 10.289062 C 42.703125 10.910156 43.085938 11.554688 43.441406 12.214844 C 43.792969 12.875 44.113281 13.554688 44.402344 14.246094 C 44.6875 14.9375 44.941406 15.644531 45.15625 16.359375 C 45.375 17.078125 45.554688 17.804688 45.703125 18.539062 C 45.847656 19.273438 45.957031 20.015625 46.03125 20.761719 C 46.105469 21.507812 46.140625 22.253906 46.140625 23.003906 Z M 46.140625 23.003906 " clip-rule="nonzero"/></clipPath><linearGradient x1="62.9915" gradientTransform="matrix(0.738281, 0, 0, 0.738281, 0, 0.117188)" y1="0.491503" x2="0.991501" gradientUnits="userSpaceOnUse" y2="62.491498" id="ffcf558f20"><stop stop-opacity="1" stop-color="rgb(26.699829%, 4.299927%, 8.999634%)" offset="0"/><stop stop-opacity="1" stop-color="rgb(26.699829%, 4.299927%, 8.999634%)" offset="0.25"/><stop stop-opacity="1" stop-color="rgb(26.699829%, 4.299927%, 8.999634%)" offset="0.28125"/><stop stop-opacity="1" stop-color="rgb(26.699829%, 4.299927%, 8.999634%)" offset="0.296875"/><stop stop-opacity="1" stop-color="rgb(26.603699%, 4.325867%, 8.999634%)" offset="0.304687"/><stop stop-opacity="1" stop-color="rgb(26.38855%, 4.385376%, 8.999634%)" offset="0.3125"/><stop stop-opacity="1" stop-color="rgb(26.147461%, 4.452515%, 8.999634%)" offset="0.320312"/><stop stop-opacity="1" stop-color="rgb(25.907898%, 4.519653%, 8.999634%)" offset="0.328125"/><stop stop-opacity="1" stop-color="rgb(25.666809%, 4.586792%, 8.999634%)" offset="0.335937"/><stop stop-opacity="1" stop-color="rgb(25.42572%, 4.653931%, 8.999634%)" offset="0.34375"/><stop stop-opacity="1" stop-color="rgb(25.184631%, 4.719543%, 8.999634%)" offset="0.351562"/><stop stop-opacity="1" stop-color="rgb(24.943542%, 4.786682%, 8.999634%)" offset="0.359375"/><stop stop-opacity="1" stop-color="rgb(24.703979%, 4.853821%, 8.999634%)" offset="0.367188"/><stop stop-opacity="1" stop-color="rgb(24.462891%, 4.920959%, 8.999634%)" offset="0.375"/><stop stop-opacity="1" stop-color="rgb(24.221802%, 4.988098%, 8.999634%)" offset="0.382812"/><stop stop-opacity="1" stop-color="rgb(23.980713%, 5.055237%, 8.999634%)" offset="0.390625"/><stop stop-opacity="1" stop-color="rgb(23.739624%, 5.122375%, 8.999634%)" offset="0.398438"/><stop stop-opacity="1" stop-color="rgb(23.500061%, 5.189514%, 8.999634%)" offset="0.40625"/><stop stop-opacity="1" stop-color="rgb(23.258972%, 5.256653%, 8.999634%)" offset="0.414062"/><stop stop-opacity="1" stop-color="rgb(23.017883%, 5.322266%, 8.999634%)" offset="0.421875"/><stop stop-opacity="1" stop-color="rgb(22.776794%, 5.389404%, 8.999634%)" offset="0.429687"/><stop stop-opacity="1" stop-color="rgb(22.537231%, 5.456543%, 8.999634%)" offset="0.4375"/><stop stop-opacity="1" stop-color="rgb(22.296143%, 5.523682%, 8.999634%)" offset="0.445312"/><stop stop-opacity="1" stop-color="rgb(22.055054%, 5.59082%, 8.999634%)" offset="0.453125"/><stop stop-opacity="1" stop-color="rgb(21.813965%, 5.657959%, 8.999634%)" offset="0.460937"/><stop stop-opacity="1" stop-color="rgb(21.572876%, 5.725098%, 8.999634%)" offset="0.46875"/><stop stop-opacity="1" stop-color="rgb(21.333313%, 5.792236%, 8.999634%)" offset="0.476562"/><stop stop-opacity="1" stop-color="rgb(21.092224%, 5.857849%, 8.999634%)" offset="0.484375"/><stop stop-opacity="1" stop-color="rgb(20.851135%, 5.924988%, 8.999634%)" offset="0.492188"/><stop stop-opacity="1" stop-color="rgb(20.610046%, 5.992126%, 8.999634%)" offset="0.5"/><stop stop-opacity="1" stop-color="rgb(20.489502%, 6.025696%, 8.999634%)" offset="0.5"/><stop stop-opacity="1" stop-color="rgb(20.368958%, 6.059265%, 8.999634%)" offset="0.5"/><stop stop-opacity="1" stop-color="rgb(20.249939%, 6.092834%, 8.999634%)" offset="0.507812"/><stop stop-opacity="1" stop-color="rgb(20.129395%, 6.126404%, 8.999634%)" offset="0.515625"/><stop stop-opacity="1" stop-color="rgb(19.888306%, 6.193542%, 8.999634%)" offset="0.523437"/><stop stop-opacity="1" stop-color="rgb(19.647217%, 6.260681%, 8.999634%)" offset="0.53125"/><stop stop-opacity="1" stop-color="rgb(19.406128%, 6.32782%, 8.999634%)" offset="0.539062"/><stop stop-opacity="1" stop-color="rgb(19.166565%, 6.393433%, 8.999634%)" offset="0.546875"/><stop stop-opacity="1" stop-color="rgb(18.925476%, 6.460571%, 8.999634%)" offset="0.554687"/><stop stop-opacity="1" stop-color="rgb(18.684387%, 6.52771%, 8.999634%)" offset="0.5625"/><stop stop-opacity="1" stop-color="rgb(18.443298%, 6.594849%, 8.999634%)" offset="0.570312"/><stop stop-opacity="1" stop-color="rgb(18.202209%, 6.661987%, 8.999634%)" offset="0.578125"/><stop stop-opacity="1" stop-color="rgb(17.962646%, 6.729126%, 8.999634%)" offset="0.585938"/><stop stop-opacity="1" stop-color="rgb(17.721558%, 6.796265%, 8.999634%)" offset="0.59375"/><stop stop-opacity="1" stop-color="rgb(17.480469%, 6.863403%, 8.999634%)" offset="0.601562"/><stop stop-opacity="1" stop-color="rgb(17.23938%, 6.930542%, 8.999634%)" offset="0.609375"/><stop stop-opacity="1" stop-color="rgb(16.998291%, 6.996155%, 8.999634%)" offset="0.617188"/><stop stop-opacity="1" stop-color="rgb(16.758728%, 7.063293%, 8.999634%)" offset="0.625"/><stop stop-opacity="1" stop-color="rgb(16.517639%, 7.130432%, 8.999634%)" offset="0.632812"/><stop stop-opacity="1" stop-color="rgb(16.27655%, 7.197571%, 8.999634%)" offset="0.640625"/><stop stop-opacity="1" stop-color="rgb(16.035461%, 7.264709%, 8.999634%)" offset="0.648437"/><stop stop-opacity="1" stop-color="rgb(15.795898%, 7.331848%, 8.999634%)" offset="0.65625"/><stop stop-opacity="1" stop-color="rgb(15.55481%, 7.398987%, 8.999634%)" offset="0.664062"/><stop stop-opacity="1" stop-color="rgb(15.313721%, 7.466125%, 8.999634%)" offset="0.671875"/><stop stop-opacity="1" stop-color="rgb(15.072632%, 7.531738%, 8.999634%)" offset="0.679688"/><stop stop-opacity="1" stop-color="rgb(14.831543%, 7.598877%, 8.999634%)" offset="0.6875"/><stop stop-opacity="1" stop-color="rgb(14.59198%, 7.666016%, 8.999634%)" offset="0.695312"/><stop stop-opacity="1" stop-color="rgb(14.350891%, 7.733154%, 8.999634%)" offset="0.703125"/><stop stop-opacity="1" stop-color="rgb(14.109802%, 7.800293%, 8.999634%)" offset="0.710938"/><stop stop-opacity="1" stop-color="rgb(13.868713%, 7.867432%, 8.999634%)" offset="0.71875"/><stop stop-opacity="1" stop-color="rgb(13.627625%, 7.93457%, 8.999634%)" offset="0.726562"/><stop stop-opacity="1" stop-color="rgb(13.388062%, 8.001709%, 8.999634%)" offset="0.734375"/><stop stop-opacity="1" stop-color="rgb(13.146973%, 8.068848%, 8.999634%)" offset="0.742187"/><stop stop-opacity="1" stop-color="rgb(12.905884%, 8.13446%, 8.999634%)" offset="0.75"/><stop stop-opacity="1" stop-color="rgb(12.664795%, 8.201599%, 8.999634%)" offset="0.757812"/><stop stop-opacity="1" stop-color="rgb(12.425232%, 8.268738%, 8.999634%)" offset="0.765625"/><stop stop-opacity="1" stop-color="rgb(12.184143%, 8.335876%, 8.999634%)" offset="0.773437"/><stop stop-opacity="1" stop-color="rgb(11.943054%, 8.403015%, 8.999634%)" offset="0.78125"/><stop stop-opacity="1" stop-color="rgb(11.701965%, 8.470154%, 8.999634%)" offset="0.789062"/><stop stop-opacity="1" stop-color="rgb(11.460876%, 8.537292%, 8.999634%)" offset="0.796875"/><stop stop-opacity="1" stop-color="rgb(11.221313%, 8.604431%, 8.999634%)" offset="0.804688"/><stop stop-opacity="1" stop-color="rgb(10.980225%, 8.670044%, 8.999634%)" offset="0.8125"/><stop stop-opacity="1" stop-color="rgb(10.739136%, 8.737183%, 8.999634%)" offset="0.820312"/><stop stop-opacity="1" stop-color="rgb(10.498047%, 8.804321%, 8.999634%)" offset="0.828125"/><stop stop-opacity="1" stop-color="rgb(10.256958%, 8.87146%, 8.999634%)" offset="0.835937"/><stop stop-opacity="1" stop-color="rgb(10.017395%, 8.938599%, 8.999634%)" offset="0.84375"/><stop stop-opacity="1" stop-color="rgb(9.848022%, 8.985901%, 8.999634%)" offset="0.875"/><stop stop-opacity="1" stop-color="rgb(9.799194%, 8.999634%, 8.999634%)" offset="1"/></linearGradient></defs><g clip-path="url(#f05f87fff2)"><path fill="#ffffff" d="M 0 0.117188 L 46.511719 0.117188 L 46.511719 45.890625 L 0 45.890625 Z M 0 0.117188 " fill-opacity="1" fill-rule="nonzero"/><path fill="#ffffff" d="M 0 0.117188 L 46.511719 0.117188 L 46.511719 45.890625 L 0 45.890625 Z M 0 0.117188 " fill-opacity="1" fill-rule="nonzero"/></g><g clip-path="url(#4f304d2bba)"><g clip-path="url(#b281362c35)"><path fill="url(#ffcf558f20)" d="M 0.367188 0.117188 L 0.367188 45.890625 L 46.140625 45.890625 L 46.140625 0.117188 Z M 0.367188 0.117188 " fill-rule="nonzero"/></g></g></svg>