<svg xmlns="http://www.w3.org/2000/svg" xmlns:xlink="http://www.w3.org/1999/xlink" width="666" zoomAndPan="magnify" viewBox="0 0 499.5 68.999997" height="92" preserveAspectRatio="xMidYMid meet" version="1.0"><defs><clipPath id="a06e7325df"><path d="M 0 0.0351562 L 499 0.0351562 L 499 68.964844 L 0 68.964844 Z M 0 0.0351562 " clip-rule="nonzero"/></clipPath><clipPath id="d7001531d2"><path d="M 0 0.0351562 L 499 0.0351562 L 499 33.125 L 0 33.125 Z M 0 0.0351562 " clip-rule="nonzero"/></clipPath><clipPath id="acb5518480"><path d="M 18.585938 5.347656 L 134.972656 5.347656 L 134.972656 33.125 L 18.585938 33.125 Z M 18.585938 5.347656 " clip-rule="nonzero"/></clipPath><clipPath id="3290b20923"><path d="M 18.601562 5.347656 L 134.71875 5.347656 L 134.71875 33.066406 L 18.601562 33.066406 Z M 18.601562 5.347656 " clip-rule="nonzero"/></clipPath><clipPath id="72327c6e46"><path d="M 10 5.347656 L 29.5625 5.347656 L 29.5625 33.125 L 10 33.125 Z M 10 5.347656 " clip-rule="nonzero"/></clipPath><clipPath id="3954ebf056"><path d="M 18.59375 5.347656 L 29.5625 5.347656 L 20.96875 33.125 L 10 33.125 Z M 18.59375 5.347656 " clip-rule="nonzero"/></clipPath><clipPath id="581b6fa8bf"><path d="M 18.585938 14.171875 L 102.34375 14.171875 L 102.34375 40.285156 L 18.585938 40.285156 Z M 18.585938 14.171875 " clip-rule="nonzero"/></clipPath><clipPath id="5a52f6515a"><path d="M 27.179688 14.171875 L 102.34375 14.171875 L 93.75 40.285156 L 18.585938 40.285156 Z M 27.179688 14.171875 " clip-rule="nonzero"/></clipPath><clipPath id="ff47021155"><path d="M 76.777344 39.875 L 444.652344 39.875 L 444.652344 59.003906 L 76.777344 59.003906 Z M 76.777344 39.875 " clip-rule="nonzero"/></clipPath><clipPath id="5e27f9e3dd"><path d="M 87.546875 20.746094 L 132.042969 20.746094 L 132.042969 39.875 L 87.546875 39.875 Z M 87.546875 20.746094 " clip-rule="nonzero"/></clipPath><clipPath id="1e8a74cb7a"><path d="M 9.148438 44.167969 L 25.054688 44.167969 L 25.054688 56.097656 L 9.148438 56.097656 Z M 9.148438 44.167969 " clip-rule="nonzero"/></clipPath><clipPath id="4a0344dc72"><path d="M 21.078125 44.167969 L 9.148438 44.167969 L 13.125 56.097656 L 25.054688 56.097656 Z M 21.078125 44.167969 " clip-rule="nonzero"/></clipPath><clipPath id="c4c3a17117"><path d="M 9.152344 44.167969 L 24.882812 44.167969 L 24.882812 56.085938 L 9.152344 56.085938 Z M 9.152344 44.167969 " clip-rule="nonzero"/></clipPath><clipPath id="6cc9bb2275"><path d="M 21.070312 44.167969 L 9.152344 44.167969 L 13.125 56.085938 L 25.042969 56.085938 Z M 21.070312 44.167969 " clip-rule="nonzero"/></clipPath><clipPath id="338941dc28"><path d="M 34.195312 44.167969 L 50.101562 44.167969 L 50.101562 56.097656 L 34.195312 56.097656 Z M 34.195312 44.167969 " clip-rule="nonzero"/></clipPath><clipPath id="9cf37c5a22"><path d="M 46.125 44.167969 L 34.195312 44.167969 L 38.171875 56.097656 L 50.101562 56.097656 Z M 46.125 44.167969 " clip-rule="nonzero"/></clipPath><clipPath id="7e456a35d7"><path d="M 34.199219 44.167969 L 49.929688 44.167969 L 49.929688 56.085938 L 34.199219 56.085938 Z M 34.199219 44.167969 " clip-rule="nonzero"/></clipPath><clipPath id="8270b0e9b8"><path d="M 46.117188 44.167969 L 34.199219 44.167969 L 38.171875 56.085938 L 50.089844 56.085938 Z M 46.117188 44.167969 " clip-rule="nonzero"/></clipPath><clipPath id="7133cda326"><path d="M 81.414062 44.167969 L 97.320312 44.167969 L 97.320312 56.097656 L 81.414062 56.097656 Z M 81.414062 44.167969 " clip-rule="nonzero"/></clipPath><clipPath id="2a975cf6bc"><path d="M 93.34375 44.167969 L 81.414062 44.167969 L 85.390625 56.097656 L 97.320312 56.097656 Z M 93.34375 44.167969 " clip-rule="nonzero"/></clipPath><clipPath id="541e75e2c0"><path d="M 81.417969 44.167969 L 97.148438 44.167969 L 97.148438 56.085938 L 81.417969 56.085938 Z M 81.417969 44.167969 " clip-rule="nonzero"/></clipPath><clipPath id="d18588f949"><path d="M 93.335938 44.167969 L 81.417969 44.167969 L 85.390625 56.085938 L 97.308594 56.085938 Z M 93.335938 44.167969 " clip-rule="nonzero"/></clipPath><clipPath id="1903e031f5"><path d="M 471.625 48 L 486.609375 48 L 486.609375 51 L 471.625 51 Z M 471.625 48 " clip-rule="nonzero"/></clipPath><clipPath id="b49440d950"><path d="M 471.625 53 L 486.609375 53 L 486.609375 54.65625 L 471.625 54.65625 Z M 471.625 53 " clip-rule="nonzero"/></clipPath><clipPath id="4cdf1b6cac"><path d="M 471.625 44.167969 L 486.609375 44.167969 L 486.609375 46 L 471.625 46 Z M 471.625 44.167969 " clip-rule="nonzero"/></clipPath></defs><g clip-path="url(#a06e7325df)"><path fill="#ffffff" d="M 0 0.0351562 L 499 0.0351562 L 499 68.964844 L 0 68.964844 Z M 0 0.0351562 " fill-opacity="1" fill-rule="nonzero"/><path fill="#14111a" d="M 0 0.0351562 L 499 0.0351562 L 499 68.964844 L 0 68.964844 Z M 0 0.0351562 " fill-opacity="1" fill-rule="nonzero"/></g><g clip-path="url(#d7001531d2)"><path fill="#000000" d="M 0 0.0351562 L 499 0.0351562 L 499 33.125 L 0 33.125 Z M 0 0.0351562 " fill-opacity="1" fill-rule="nonzero"/></g><g clip-path="url(#acb5518480)"><path fill="#14111a" d="M 18.585938 5.347656 L 134.972656 5.347656 L 134.972656 33.125 L 18.585938 33.125 Z M 18.585938 5.347656 " fill-opacity="1" fill-rule="nonzero"/></g><g clip-path="url(#3290b20923)"><path stroke-linecap="butt" transform="matrix(0.74925, 0, 0, 0.74925, 18.603247, 5.345718)" fill="none" stroke-linejoin="miter" d="M -0.00224872 0.00258678 L 155.283262 0.00258678 L 155.283262 37.060482 L -0.00224872 37.060482 Z M -0.00224872 0.00258678 " stroke="#fb1d4e" stroke-width="8" stroke-opacity="1" stroke-miterlimit="4"/></g><g clip-path="url(#72327c6e46)"><g clip-path="url(#3954ebf056)"><path fill="#fb1d4e" d="M 10 5.347656 L 29.5625 5.347656 L 29.5625 33.125 L 10 33.125 Z M 10 5.347656 " fill-opacity="1" fill-rule="nonzero"/></g></g><g clip-path="url(#581b6fa8bf)"><g clip-path="url(#5a52f6515a)"><path fill="#14111a" d="M 18.585938 14.171875 L 102.34375 14.171875 L 102.34375 40.285156 L 18.585938 40.285156 Z M 18.585938 14.171875 " fill-opacity="1" fill-rule="nonzero"/></g></g><g clip-path="url(#ff47021155)"><path fill="#322c3d" d="M 76.777344 39.875 L 444.652344 39.875 L 444.652344 59.003906 L 76.777344 59.003906 Z M 76.777344 39.875 " fill-opacity="1" fill-rule="nonzero"/></g><g clip-path="url(#5e27f9e3dd)"><path fill="#14111a" d="M 87.546875 20.746094 L 132.042969 20.746094 L 132.042969 39.875 L 87.546875 39.875 Z M 87.546875 20.746094 " fill-opacity="1" fill-rule="nonzero"/></g><path stroke-linecap="butt" transform="matrix(0.74925, 0, 0, 0.74925, 150.734459, 17.848938)" fill="none" stroke-linejoin="miter" d="M -0.000111804 2.000291 L 115.599868 2.000291 " stroke="#fb1d4e" stroke-width="4" stroke-opacity="1" stroke-miterlimit="4"/><g clip-path="url(#1e8a74cb7a)"><g clip-path="url(#4a0344dc72)"><path fill="#14111a" d="M 9.148438 44.167969 L 25.054688 44.167969 L 25.054688 56.097656 L 9.148438 56.097656 Z M 9.148438 44.167969 " fill-opacity="1" fill-rule="nonzero"/></g></g><g clip-path="url(#c4c3a17117)"><g clip-path="url(#6cc9bb2275)"><path stroke-linecap="butt" transform="matrix(0.74925, 0, 0, 0.74925, 9.152245, 44.168186)" fill="none" stroke-linejoin="miter" d="M 15.906663 -0.000289682 L 0.000132209 -0.000289682 L 5.302309 15.906241 L 21.20884 15.906241 Z M 15.906663 -0.000289682 " stroke="#fb1d4e" stroke-width="4" stroke-opacity="1" stroke-miterlimit="4"/></g></g><g clip-path="url(#338941dc28)"><g clip-path="url(#9cf37c5a22)"><path fill="#14111a" d="M 34.195312 44.167969 L 50.101562 44.167969 L 50.101562 56.097656 L 34.195312 56.097656 Z M 34.195312 44.167969 " fill-opacity="1" fill-rule="nonzero"/></g></g><g clip-path="url(#7e456a35d7)"><g clip-path="url(#8270b0e9b8)"><path stroke-linecap="butt" transform="matrix(0.74925, 0, 0, 0.74925, 34.1983, 44.168186)" fill="none" stroke-linejoin="miter" d="M 15.907757 -0.000289682 L 0.00122596 -0.000289682 L 5.303403 15.906241 L 21.209934 15.906241 Z M 15.907757 -0.000289682 " stroke="#fb1d4e" stroke-width="4" stroke-opacity="1" stroke-miterlimit="4"/></g></g><g clip-path="url(#7133cda326)"><g clip-path="url(#2a975cf6bc)"><path fill="#14111a" d="M 81.414062 44.167969 L 97.320312 44.167969 L 97.320312 56.097656 L 81.414062 56.097656 Z M 81.414062 44.167969 " fill-opacity="1" fill-rule="nonzero"/></g></g><g clip-path="url(#541e75e2c0)"><g clip-path="url(#d18588f949)"><path stroke-linecap="butt" transform="matrix(0.74925, 0, 0, 0.74925, 81.41991, 44.168186)" fill="none" stroke-linejoin="miter" d="M 15.90394 -0.000289682 L -0.00259145 -0.000289682 L 5.299586 15.906241 L 21.206117 15.906241 Z M 15.90394 -0.000289682 " stroke="#fb1d4e" stroke-width="4" stroke-opacity="1" stroke-miterlimit="4"/></g></g><path stroke-linecap="butt" transform="matrix(0.74925, 0.000000000000000034, -0.000000000000000034, 0.74925, 100.958053, 47.941229)" fill="none" stroke-linejoin="miter" d="M -0.00136327 2.002239 L 317.331608 2.002239 " stroke="#fb1d4e" stroke-width="4" stroke-opacity="1" stroke-miterlimit="4"/><path stroke-linecap="butt" transform="matrix(0.74925, 0, 0, 0.74925, 33.472161, 17.848938)" fill="none" stroke-linejoin="miter" d="M 0.000661398 2.000291 L 115.600641 2.000291 " stroke="#322c3d" stroke-width="4" stroke-opacity="1" stroke-miterlimit="4"/><g clip-path="url(#1903e031f5)"><path fill="#fb1d4e" d="M 485.992188 48.703125 L 472.386719 48.703125 C 472.175781 48.703125 472 48.777344 471.851562 48.925781 C 471.703125 49.074219 471.628906 49.25 471.628906 49.460938 C 471.628906 49.667969 471.703125 49.847656 471.851562 49.996094 C 472 50.140625 472.175781 50.214844 472.386719 50.214844 L 485.992188 50.214844 C 486.203125 50.214844 486.378906 50.140625 486.527344 49.996094 C 486.675781 49.847656 486.75 49.667969 486.75 49.460938 C 486.75 49.25 486.675781 49.074219 486.527344 48.925781 C 486.378906 48.777344 486.203125 48.703125 485.992188 48.703125 Z M 485.992188 48.703125 " fill-opacity="1" fill-rule="nonzero"/></g><g clip-path="url(#b49440d950)"><path fill="#fb1d4e" d="M 485.992188 53.238281 L 472.386719 53.238281 C 472.175781 53.238281 472 53.3125 471.851562 53.460938 C 471.703125 53.609375 471.628906 53.785156 471.628906 53.996094 C 471.628906 54.203125 471.703125 54.382812 471.851562 54.53125 C 472 54.675781 472.175781 54.75 472.386719 54.75 L 485.992188 54.75 C 486.203125 54.75 486.378906 54.675781 486.527344 54.53125 C 486.675781 54.382812 486.75 54.203125 486.75 53.996094 C 486.75 53.785156 486.675781 53.609375 486.527344 53.460938 C 486.378906 53.3125 486.203125 53.238281 485.992188 53.238281 Z M 485.992188 53.238281 " fill-opacity="1" fill-rule="nonzero"/></g><g clip-path="url(#4cdf1b6cac)"><path fill="#fb1d4e" d="M 472.386719 45.679688 L 485.992188 45.679688 C 486.203125 45.679688 486.378906 45.605469 486.527344 45.457031 C 486.675781 45.3125 486.75 45.132812 486.75 44.925781 C 486.75 44.714844 486.675781 44.539062 486.527344 44.390625 C 486.378906 44.242188 486.203125 44.167969 485.992188 44.167969 L 472.386719 44.167969 C 472.175781 44.167969 472 44.242188 471.851562 44.390625 C 471.703125 44.539062 471.628906 44.714844 471.628906 44.925781 C 471.628906 45.132812 471.703125 45.3125 471.851562 45.457031 C 472 45.605469 472.175781 45.679688 472.386719 45.679688 Z M 472.386719 45.679688 " fill-opacity="1" fill-rule="nonzero"/></g></svg>