<svg xmlns="http://www.w3.org/2000/svg" xmlns:xlink="http://www.w3.org/1999/xlink" width="63" zoomAndPan="magnify" viewBox="0 0 47.25 46.5" height="62" preserveAspectRatio="xMidYMid meet" version="1.0"><defs><clipPath id="3c9fc94605"><path d="M 0 0.117188 L 46.511719 0.117188 L 46.511719 45.890625 L 0 45.890625 Z M 0 0.117188 " clip-rule="nonzero"/></clipPath><clipPath id="2c3e9f6a0a"><path d="M 46.140625 23.003906 C 46.140625 23.753906 46.105469 24.5 46.03125 25.246094 C 45.957031 25.992188 45.847656 26.734375 45.703125 27.46875 C 45.554688 28.203125 45.375 28.929688 45.15625 29.648438 C 44.941406 30.363281 44.6875 31.070312 44.402344 31.761719 C 44.113281 32.453125 43.792969 33.132812 43.441406 33.792969 C 43.085938 34.453125 42.703125 35.097656 42.285156 35.71875 C 41.867188 36.34375 41.421875 36.945312 40.949219 37.523438 C 40.472656 38.101562 39.96875 38.65625 39.4375 39.1875 C 38.910156 39.71875 38.355469 40.21875 37.773438 40.695312 C 37.195312 41.171875 36.59375 41.617188 35.972656 42.035156 C 35.347656 42.449219 34.707031 42.835938 34.042969 43.1875 C 33.382812 43.542969 32.707031 43.863281 32.015625 44.148438 C 31.320312 44.433594 30.617188 44.6875 29.898438 44.90625 C 29.183594 45.121094 28.457031 45.304688 27.722656 45.449219 C 26.984375 45.597656 26.246094 45.707031 25.5 45.78125 C 24.753906 45.855469 24.003906 45.890625 23.253906 45.890625 C 22.507812 45.890625 21.757812 45.855469 21.011719 45.78125 C 20.265625 45.707031 19.527344 45.597656 18.789062 45.449219 C 18.054688 45.304688 17.328125 45.121094 16.613281 44.90625 C 15.894531 44.6875 15.191406 44.433594 14.496094 44.148438 C 13.804688 43.863281 13.128906 43.542969 12.46875 43.1875 C 11.804688 42.835938 11.164062 42.449219 10.539062 42.035156 C 9.917969 41.617188 9.316406 41.171875 8.738281 40.695312 C 8.15625 40.21875 7.601562 39.71875 7.074219 39.1875 C 6.542969 38.65625 6.039062 38.101562 5.5625 37.523438 C 5.089844 36.945312 4.644531 36.34375 4.226562 35.71875 C 3.808594 35.097656 3.425781 34.453125 3.070312 33.792969 C 2.71875 33.132812 2.398438 32.453125 2.109375 31.761719 C 1.824219 31.070312 1.570312 30.363281 1.355469 29.648438 C 1.136719 28.929688 0.957031 28.203125 0.808594 27.46875 C 0.664062 26.734375 0.554688 25.992188 0.480469 25.246094 C 0.40625 24.5 0.367188 23.753906 0.367188 23.003906 C 0.367188 22.253906 0.40625 21.507812 0.480469 20.761719 C 0.554688 20.015625 0.664062 19.273438 0.808594 18.539062 C 0.957031 17.804688 1.136719 17.078125 1.355469 16.359375 C 1.570312 15.644531 1.824219 14.9375 2.109375 14.246094 C 2.398438 13.554688 2.71875 12.875 3.070312 12.214844 C 3.425781 11.554688 3.808594 10.910156 4.226562 10.289062 C 4.644531 9.664062 5.089844 9.0625 5.5625 8.484375 C 6.039062 7.90625 6.542969 7.351562 7.074219 6.820312 C 7.601562 6.289062 8.15625 5.789062 8.738281 5.3125 C 9.316406 4.835938 9.917969 4.390625 10.539062 3.972656 C 11.164062 3.558594 11.804688 3.171875 12.46875 2.820312 C 13.128906 2.464844 13.804688 2.144531 14.496094 1.859375 C 15.191406 1.574219 15.894531 1.320312 16.613281 1.101562 C 17.328125 0.886719 18.054688 0.703125 18.789062 0.558594 C 19.527344 0.410156 20.265625 0.300781 21.011719 0.226562 C 21.757812 0.152344 22.507812 0.117188 23.253906 0.117188 C 24.003906 0.117188 24.753906 0.152344 25.5 0.226562 C 26.246094 0.300781 26.984375 0.410156 27.722656 0.558594 C 28.457031 0.703125 29.183594 0.886719 29.898438 1.101562 C 30.617188 1.320312 31.320312 1.574219 32.015625 1.859375 C 32.707031 2.144531 33.382812 2.464844 34.042969 2.820312 C 34.707031 3.171875 35.347656 3.558594 35.972656 3.972656 C 36.59375 4.390625 37.195312 4.835938 37.773438 5.3125 C 38.355469 5.789062 38.910156 6.289062 39.4375 6.820312 C 39.96875 7.351562 40.472656 7.90625 40.949219 8.484375 C 41.421875 9.0625 41.867188 9.664062 42.285156 10.289062 C 42.703125 10.910156 43.085938 11.554688 43.441406 12.214844 C 43.792969 12.875 44.113281 13.554688 44.402344 14.246094 C 44.6875 14.9375 44.941406 15.644531 45.15625 16.359375 C 45.375 17.078125 45.554688 17.804688 45.703125 18.539062 C 45.847656 19.273438 45.957031 20.015625 46.03125 20.761719 C 46.105469 21.507812 46.140625 22.253906 46.140625 23.003906 Z M 46.140625 23.003906 " clip-rule="nonzero"/></clipPath><linearGradient x1="0.491501" gradientTransform="matrix(0.738281, 0, 0, 0.738281, 0, 0.117188)" y1="61.991498" x2="62.4915" gradientUnits="userSpaceOnUse" y2="-0.00849704" id="b6f05b276a"><stop stop-opacity="1" stop-color="rgb(81.199646%, 81.199646%, 100%)" offset="0"/><stop stop-opacity="1" stop-color="rgb(81.199646%, 81.199646%, 100%)" offset="0.125"/><stop stop-opacity="1" stop-color="rgb(81.242371%, 81.242371%, 99.957275%)" offset="0.1875"/><stop stop-opacity="1" stop-color="rgb(81.414795%, 81.414795%, 99.783325%)" offset="0.21875"/><stop stop-opacity="1" stop-color="rgb(81.674194%, 81.674194%, 99.5224%)" offset="0.25"/><stop stop-opacity="1" stop-color="rgb(81.93512%, 81.93512%, 99.263%)" offset="0.28125"/><stop stop-opacity="1" stop-color="rgb(82.194519%, 82.194519%, 99.002075%)" offset="0.3125"/><stop stop-opacity="1" stop-color="rgb(82.455444%, 82.455444%, 98.742676%)" offset="0.34375"/><stop stop-opacity="1" stop-color="rgb(82.71637%, 82.71637%, 98.48175%)" offset="0.375"/><stop stop-opacity="1" stop-color="rgb(82.975769%, 82.975769%, 98.220825%)" offset="0.40625"/><stop stop-opacity="1" stop-color="rgb(83.236694%, 83.236694%, 97.961426%)" offset="0.4375"/><stop stop-opacity="1" stop-color="rgb(83.49762%, 83.49762%, 97.7005%)" offset="0.46875"/><stop stop-opacity="1" stop-color="rgb(83.757019%, 83.757019%, 97.439575%)" offset="0.5"/><stop stop-opacity="1" stop-color="rgb(83.888245%, 83.888245%, 97.309875%)" offset="0.5"/><stop stop-opacity="1" stop-color="rgb(84.017944%, 84.017944%, 97.180176%)" offset="0.5"/><stop stop-opacity="1" stop-color="rgb(84.147644%, 84.147644%, 97.050476%)" offset="0.53125"/><stop stop-opacity="1" stop-color="rgb(84.277344%, 84.277344%, 96.91925%)" offset="0.5625"/><stop stop-opacity="1" stop-color="rgb(84.538269%, 84.538269%, 96.659851%)" offset="0.59375"/><stop stop-opacity="1" stop-color="rgb(84.799194%, 84.799194%, 96.398926%)" offset="0.625"/><stop stop-opacity="1" stop-color="rgb(85.058594%, 85.058594%, 96.138%)" offset="0.65625"/><stop stop-opacity="1" stop-color="rgb(85.319519%, 85.319519%, 95.878601%)" offset="0.6875"/><stop stop-opacity="1" stop-color="rgb(85.475159%, 85.475159%, 95.722961%)" offset="0.75"/><stop stop-opacity="1" stop-color="rgb(85.499573%, 85.499573%, 95.698547%)" offset="1"/></linearGradient></defs><g clip-path="url(#3c9fc94605)"><g clip-path="url(#2c3e9f6a0a)"><path fill="url(#b6f05b276a)" d="M 0.367188 0.117188 L 0.367188 45.890625 L 46.140625 45.890625 L 46.140625 0.117188 Z M 0.367188 0.117188 " fill-rule="nonzero"/></g></g></svg>